# Tiled2Unity generated file. Do not modify by hand.
# Wavefront file for 'overworld_mesh_0002.obj'

# Vertices (Count = 620)
v -24 -1 0
v -25 -1 0
v -25 0 0
v -24 0 0
v -23 -1 0
v -24 -1 0
v -24 0 0
v -23 0 0
v -22 -1 0
v -23 -1 0
v -23 0 0
v -22 0 0
v -21 -1 0
v -22 -1 0
v -22 0 0
v -21 0 0
v -17 -1 0
v -18 -1 0
v -18 0 0
v -17 0 0
v -16 -1 0
v -17 -1 0
v -17 0 0
v -16 0 0
v -15 -1 0
v -16 -1 0
v -16 0 0
v -15 0 0
v -14 -1 0
v -15 -1 0
v -15 0 0
v -14 0 0
v -13 -1 0
v -14 -1 0
v -14 0 0
v -13 0 0
v -12 -1 0
v -13 -1 0
v -13 0 0
v -12 0 0
v -11 -1 0
v -12 -1 0
v -12 0 0
v -11 0 0
v -10 -1 0
v -11 -1 0
v -11 0 0
v -10 0 0
v -9 -1 0
v -10 -1 0
v -10 0 0
v -9 0 0
v -8 -1 0
v -9 -1 0
v -9 0 0
v -8 0 0
v -7 -1 0
v -8 -1 0
v -8 0 0
v -7 0 0
v -6 -1 0
v -7 -1 0
v -7 0 0
v -6 0 0
v -5 -1 0
v -6 -1 0
v -6 0 0
v -5 0 0
v -4 -1 0
v -5 -1 0
v -5 0 0
v -4 0 0
v -3 -1 0
v -4 -1 0
v -4 0 0
v -3 0 0
v -2 -1 0
v -3 -1 0
v -3 0 0
v -2 0 0
v -1 -1 0
v -2 -1 0
v -2 0 0
v -1 0 0
v 0 -1 0
v -1 -1 0
v -1 0 0
v 0 0 0
v -24 -2 0
v -25 -2 0
v -25 -1 0
v -24 -1 0
v 0 -2 0
v -1 -2 0
v -1 -1 0
v 0 -1 0
v -24 -3 0
v -25 -3 0
v -25 -2 0
v -24 -2 0
v -16 -3 0
v -17 -3 0
v -17 -2 0
v -16 -2 0
v -15 -3 0
v -16 -3 0
v -16 -2 0
v -15 -2 0
v 0 -3 0
v -1 -3 0
v -1 -2 0
v 0 -2 0
v -24 -4 0
v -25 -4 0
v -25 -3 0
v -24 -3 0
v -15 -4 0
v -16 -4 0
v -16 -3 0
v -15 -3 0
v 0 -4 0
v -1 -4 0
v -1 -3 0
v 0 -3 0
v -24 -5 0
v -25 -5 0
v -25 -4 0
v -24 -4 0
v -16 -5 0
v -17 -5 0
v -17 -4 0
v -16 -4 0
v -15 -5 0
v -16 -5 0
v -16 -4 0
v -15 -4 0
v -8 -5 0
v -9 -5 0
v -9 -4 0
v -8 -4 0
v -7 -5 0
v -8 -5 0
v -8 -4 0
v -7 -4 0
v -6 -5 0
v -7 -5 0
v -7 -4 0
v -6 -4 0
v -5 -5 0
v -6 -5 0
v -6 -4 0
v -5 -4 0
v -4 -5 0
v -5 -5 0
v -5 -4 0
v -4 -4 0
v 0 -5 0
v -1 -5 0
v -1 -4 0
v 0 -4 0
v -24 -6 0
v -25 -6 0
v -25 -5 0
v -24 -5 0
v -16 -6 0
v -17 -6 0
v -17 -5 0
v -16 -5 0
v -8 -6 0
v -9 -6 0
v -9 -5 0
v -8 -5 0
v -7 -6 0
v -8 -6 0
v -8 -5 0
v -7 -5 0
v -6 -6 0
v -7 -6 0
v -7 -5 0
v -6 -5 0
v -5 -6 0
v -6 -6 0
v -6 -5 0
v -5 -5 0
v -4 -6 0
v -5 -6 0
v -5 -5 0
v -4 -5 0
v 0 -6 0
v -1 -6 0
v -1 -5 0
v 0 -5 0
v -24 -7 0
v -25 -7 0
v -25 -6 0
v -24 -6 0
v -16 -7 0
v -17 -7 0
v -17 -6 0
v -16 -6 0
v -10 -7 0
v -11 -7 0
v -11 -6 0
v -10 -6 0
v -9 -7 0
v -10 -7 0
v -10 -6 0
v -9 -6 0
v -8 -7 0
v -9 -7 0
v -9 -6 0
v -8 -6 0
v -7 -7 0
v -8 -7 0
v -8 -6 0
v -7 -6 0
v -6 -7 0
v -7 -7 0
v -7 -6 0
v -6 -6 0
v -5 -7 0
v -6 -7 0
v -6 -6 0
v -5 -6 0
v -4 -7 0
v -5 -7 0
v -5 -6 0
v -4 -6 0
v 0 -7 0
v -1 -7 0
v -1 -6 0
v 0 -6 0
v -24 -8 0
v -25 -8 0
v -25 -7 0
v -24 -7 0
v -16 -8 0
v -17 -8 0
v -17 -7 0
v -16 -7 0
v -15 -8 0
v -16 -8 0
v -16 -7 0
v -15 -7 0
v -14 -8 0
v -15 -8 0
v -15 -7 0
v -14 -7 0
v -10 -8 0
v -11 -8 0
v -11 -7 0
v -10 -7 0
v -9 -8 0
v -10 -8 0
v -10 -7 0
v -9 -7 0
v -8 -8 0
v -9 -8 0
v -9 -7 0
v -8 -7 0
v -7 -8 0
v -8 -8 0
v -8 -7 0
v -7 -7 0
v -6 -8 0
v -7 -8 0
v -7 -7 0
v -6 -7 0
v -5 -8 0
v -6 -8 0
v -6 -7 0
v -5 -7 0
v -4 -8 0
v -5 -8 0
v -5 -7 0
v -4 -7 0
v 0 -8 0
v -1 -8 0
v -1 -7 0
v 0 -7 0
v -24 -9 0
v -25 -9 0
v -25 -8 0
v -24 -8 0
v -14 -9 0
v -15 -9 0
v -15 -8 0
v -14 -8 0
v -10 -9 0
v -11 -9 0
v -11 -8 0
v -10 -8 0
v -9 -9 0
v -10 -9 0
v -10 -8 0
v -9 -8 0
v -8 -9 0
v -9 -9 0
v -9 -8 0
v -8 -8 0
v -7 -9 0
v -8 -9 0
v -8 -8 0
v -7 -8 0
v -6 -9 0
v -7 -9 0
v -7 -8 0
v -6 -8 0
v -5 -9 0
v -6 -9 0
v -6 -8 0
v -5 -8 0
v -4 -9 0
v -5 -9 0
v -5 -8 0
v -4 -8 0
v 0 -9 0
v -1 -9 0
v -1 -8 0
v 0 -8 0
v -24 -10 0
v -25 -10 0
v -25 -9 0
v -24 -9 0
v -14 -10 0
v -15 -10 0
v -15 -9 0
v -14 -9 0
v 0 -10 0
v -1 -10 0
v -1 -9 0
v 0 -9 0
v -24 -11 0
v -25 -11 0
v -25 -10 0
v -24 -10 0
v -14 -11 0
v -15 -11 0
v -15 -10 0
v -14 -10 0
v 0 -11 0
v -1 -11 0
v -1 -10 0
v 0 -10 0
v -24 -12 0
v -25 -12 0
v -25 -11 0
v -24 -11 0
v -14 -12 0
v -15 -12 0
v -15 -11 0
v -14 -11 0
v -13 -12 0
v -14 -12 0
v -14 -11 0
v -13 -11 0
v -12 -12 0
v -13 -12 0
v -13 -11 0
v -12 -11 0
v -11 -12 0
v -12 -12 0
v -12 -11 0
v -11 -11 0
v -10 -12 0
v -11 -12 0
v -11 -11 0
v -10 -11 0
v -9 -12 0
v -10 -12 0
v -10 -11 0
v -9 -11 0
v 0 -12 0
v -1 -12 0
v -1 -11 0
v 0 -11 0
v -24 -13 0
v -25 -13 0
v -25 -12 0
v -24 -12 0
v -9 -13 0
v -10 -13 0
v -10 -12 0
v -9 -12 0
v -3 -13 0
v -4 -13 0
v -4 -12 0
v -3 -12 0
v 0 -13 0
v -1 -13 0
v -1 -12 0
v 0 -12 0
v -24 -14 0
v -25 -14 0
v -25 -13 0
v -24 -13 0
v -11 -14 0
v -12 -14 0
v -12 -13 0
v -11 -13 0
v -9 -14 0
v -10 -14 0
v -10 -13 0
v -9 -13 0
v 0 -14 0
v -1 -14 0
v -1 -13 0
v 0 -13 0
v -24 -15 0
v -25 -15 0
v -25 -14 0
v -24 -14 0
v -9 -15 0
v -10 -15 0
v -10 -14 0
v -9 -14 0
v -5 -15 0
v -6 -15 0
v -6 -14 0
v -5 -14 0
v 0 -15 0
v -1 -15 0
v -1 -14 0
v 0 -14 0
v -24 -16 0
v -25 -16 0
v -25 -15 0
v -24 -15 0
v -9 -16 0
v -10 -16 0
v -10 -15 0
v -9 -15 0
v -8 -16 0
v -9 -16 0
v -9 -15 0
v -8 -15 0
v -5 -16 0
v -6 -16 0
v -6 -15 0
v -5 -15 0
v -4 -16 0
v -5 -16 0
v -5 -15 0
v -4 -15 0
v -3 -16 0
v -4 -16 0
v -4 -15 0
v -3 -15 0
v -2 -16 0
v -3 -16 0
v -3 -15 0
v -2 -15 0
v -1 -16 0
v -2 -16 0
v -2 -15 0
v -1 -15 0
v 0 -16 0
v -1 -16 0
v -1 -15 0
v 0 -15 0
v -24 -17 0
v -25 -17 0
v -25 -16 0
v -24 -16 0
v 0 -17 0
v -1 -17 0
v -1 -16 0
v 0 -16 0
v -24 -18 0
v -25 -18 0
v -25 -17 0
v -24 -17 0
v -19 -18 0
v -20 -18 0
v -20 -17 0
v -19 -17 0
v 0 -18 0
v -1 -18 0
v -1 -17 0
v 0 -17 0
v -24 -19 0
v -25 -19 0
v -25 -18 0
v -24 -18 0
v -24 -20 0
v -25 -20 0
v -25 -19 0
v -24 -19 0
v -16 -20 0
v -17 -20 0
v -17 -19 0
v -16 -19 0
v 0 -20 0
v -1 -20 0
v -1 -19 0
v 0 -19 0
v -24 -21 0
v -25 -21 0
v -25 -20 0
v -24 -20 0
v -22 -21 0
v -23 -21 0
v -23 -20 0
v -22 -20 0
v -21 -21 0
v -22 -21 0
v -22 -20 0
v -21 -20 0
v 0 -21 0
v -1 -21 0
v -1 -20 0
v 0 -20 0
v -24 -22 0
v -25 -22 0
v -25 -21 0
v -24 -21 0
v -22 -22 0
v -23 -22 0
v -23 -21 0
v -22 -21 0
v -21 -22 0
v -22 -22 0
v -22 -21 0
v -21 -21 0
v 0 -22 0
v -1 -22 0
v -1 -21 0
v 0 -21 0
v -24 -23 0
v -25 -23 0
v -25 -22 0
v -24 -22 0
v -4 -23 0
v -5 -23 0
v -5 -22 0
v -4 -22 0
v -3 -23 0
v -4 -23 0
v -4 -22 0
v -3 -22 0
v -2 -23 0
v -3 -23 0
v -3 -22 0
v -2 -22 0
v 0 -23 0
v -1 -23 0
v -1 -22 0
v 0 -22 0
v -24 -24 0
v -25 -24 0
v -25 -23 0
v -24 -23 0
v 0 -24 0
v -1 -24 0
v -1 -23 0
v 0 -23 0
v -24 -25 0
v -25 -25 0
v -25 -24 0
v -24 -24 0
v -23 -25 0
v -24 -25 0
v -24 -24 0
v -23 -24 0
v -22 -25 0
v -23 -25 0
v -23 -24 0
v -22 -24 0
v -21 -25 0
v -22 -25 0
v -22 -24 0
v -21 -24 0
v -20 -25 0
v -21 -25 0
v -21 -24 0
v -20 -24 0
v -19 -25 0
v -20 -25 0
v -20 -24 0
v -19 -24 0
v -18 -25 0
v -19 -25 0
v -19 -24 0
v -18 -24 0
v -8 -25 0
v -9 -25 0
v -9 -24 0
v -8 -24 0
v -7 -25 0
v -8 -25 0
v -8 -24 0
v -7 -24 0
v -6 -25 0
v -7 -25 0
v -7 -24 0
v -6 -24 0
v -5 -25 0
v -6 -25 0
v -6 -24 0
v -5 -24 0
v -4 -25 0
v -5 -25 0
v -5 -24 0
v -4 -24 0
v -3 -25 0
v -4 -25 0
v -4 -24 0
v -3 -24 0
v -2 -25 0
v -3 -25 0
v -3 -24 0
v -2 -24 0
v -1 -25 0
v -2 -25 0
v -2 -24 0
v -1 -24 0
v 0 -25 0
v -1 -25 0
v -1 -24 0
v 0 -24 0

# Texture cooridinates (Count = 103)
vt 0.075 0.4444444
vt 0.1 0.4444444
vt 0.1 0.4722222
vt 0.075 0.4722222
vt 0.125 0.4444444
vt 0.15 0.4444444
vt 0.15 0.4722222
vt 0.125 0.4722222
vt 0.125 0.5
vt 0.15 0.5
vt 0.15 0.5277778
vt 0.125 0.5277778
vt 0.175 0.5
vt 0.175 0.5277778
vt 0.175 0.4722222
vt 0.2 0.4722222
vt 0.2 0.5
vt 0.025 0.4444444
vt 0.05 0.4444444
vt 0.05 0.4722222
vt 0.025 0.4722222
vt 0.05 0.5
vt 0.075 0.5
vt 0.075 0.5277778
vt 0.05 0.5277778
vt 0.1 0.5
vt 0.1 0.5277778
vt 0.25 0.9722222
vt 0.275 0.9722222
vt 0.275 1
vt 0.25 1
vt 0.225 0.9722222
vt 0.225 1
vt 0.2 0.9722222
vt 0.2 1
vt 0.175 0.9722222
vt 0.175 1
vt 0.15 0.9722222
vt 0.15 1
vt 0.25 0.9444444
vt 0.275 0.9444444
vt 0.225 0.9444444
vt 0.2 0.9444444
vt 0.175 0.9444444
vt 0.15 0.9444444
vt 0.35 0.8333333
vt 0.375 0.8333333
vt 0.375 0.8611111
vt 0.35 0.8611111
vt 0.325 0.8333333
vt 0.325 0.8611111
vt 0.25 0.9166667
vt 0.275 0.9166667
vt 0.225 0.9166667
vt 0.2 0.9166667
vt 0.175 0.9166667
vt 0.15 0.9166667
vt 0.35 0.8055556
vt 0.375 0.8055556
vt 0.325 0.8055556
vt 0.25 0.8888889
vt 0.275 0.8888889
vt 0.225 0.8888889
vt 0.2 0.8888889
vt 0.175 0.8888889
vt 0.15 0.8888889
vt 0.35 0.7777778
vt 0.375 0.7777778
vt 0.325 0.7777778
vt 0.25 0.8611111
vt 0.275 0.8611111
vt 0.225 0.8611111
vt 0.2 0.8611111
vt 0.175 0.8611111
vt 0.15 0.8611111
vt 0.225 0.8333333
vt 0.25 0.8333333
vt 0.15 0.8333333
vt 0.175 0.8333333
vt 0.275 0.8333333
vt 0 0.4444444
vt 0 0.4722222
vt 0.2 0.8333333
vt 0.175 0.5555556
vt 0.15 0.5555556
vt 0.25 0.6666666
vt 0.275 0.6666666
vt 0.275 0.6944444
vt 0.25 0.6944444
vt 0.225 0.6666666
vt 0.225 0.6944444
vt 0.25 0.6388889
vt 0.275 0.6388889
vt 0.225 0.6388889
vt 0.125 0.8333333
vt 0.125 0.8611111
vt 0.1 0.8333333
vt 0.1 0.8611111
vt 0.075 0.8333333
vt 0.075 0.8611111
vt 0.2 0.5277778
vt 0.2 0.5555556
vt 0.125 0.5555556

# Normal
vn 0 0 -1

# Mesh description
g overworld_mesh_0002

# Faces
f 1/1/1 2/2/1 3/3/1 4/4/1
f 5/5/1 6/6/1 7/7/1 8/8/1
f 9/5/1 10/6/1 11/7/1 12/8/1
f 13/9/1 14/10/1 15/11/1 16/12/1
f 17/10/1 18/13/1 19/14/1 20/11/1
f 21/5/1 22/6/1 23/7/1 24/8/1
f 25/5/1 26/6/1 27/7/1 28/8/1
f 29/5/1 30/6/1 31/7/1 32/8/1
f 33/5/1 34/6/1 35/7/1 36/8/1
f 37/5/1 38/6/1 39/7/1 40/8/1
f 41/5/1 42/6/1 43/7/1 44/8/1
f 45/5/1 46/6/1 47/7/1 48/8/1
f 49/5/1 50/6/1 51/7/1 52/8/1
f 53/5/1 54/6/1 55/7/1 56/8/1
f 57/5/1 58/6/1 59/7/1 60/8/1
f 61/5/1 62/6/1 63/7/1 64/8/1
f 65/5/1 66/6/1 67/7/1 68/8/1
f 69/5/1 70/6/1 71/7/1 72/8/1
f 73/5/1 74/6/1 75/7/1 76/8/1
f 77/5/1 78/6/1 79/7/1 80/8/1
f 81/5/1 82/6/1 83/7/1 84/8/1
f 85/2/1 86/5/1 87/8/1 88/3/1
f 89/1/1 90/2/1 91/3/1 92/4/1
f 93/15/1 94/16/1 95/17/1 96/13/1
f 97/7/1 98/15/1 99/13/1 100/10/1
f 101/18/1 102/19/1 103/20/1 104/21/1
f 105/22/1 106/23/1 107/24/1 108/25/1
f 109/15/1 110/16/1 111/17/1 112/13/1
f 113/7/1 114/15/1 115/13/1 116/10/1
f 117/3/1 118/8/1 119/9/1 120/26/1
f 121/15/1 122/16/1 123/17/1 124/13/1
f 125/7/1 126/15/1 127/13/1 128/10/1
f 129/23/1 130/26/1 131/27/1 132/24/1
f 133/20/1 134/4/1 135/23/1 136/22/1
f 137/28/1 138/29/1 139/30/1 140/31/1
f 141/32/1 142/28/1 143/31/1 144/33/1
f 145/34/1 146/32/1 147/33/1 148/35/1
f 149/36/1 150/34/1 151/35/1 152/37/1
f 153/38/1 154/36/1 155/37/1 156/39/1
f 157/15/1 158/16/1 159/17/1 160/13/1
f 161/7/1 162/15/1 163/13/1 164/10/1
f 165/3/1 166/8/1 167/9/1 168/26/1
f 169/40/1 170/41/1 171/29/1 172/28/1
f 173/42/1 174/40/1 175/28/1 176/32/1
f 177/43/1 178/42/1 179/32/1 180/34/1
f 181/44/1 182/43/1 183/34/1 184/36/1
f 185/45/1 186/44/1 187/36/1 188/38/1
f 189/15/1 190/16/1 191/17/1 192/13/1
f 193/7/1 194/15/1 195/13/1 196/10/1
f 197/3/1 198/8/1 199/9/1 200/26/1
f 201/46/1 202/47/1 203/48/1 204/49/1
f 205/50/1 206/46/1 207/49/1 208/51/1
f 209/52/1 210/53/1 211/41/1 212/40/1
f 213/54/1 214/52/1 215/40/1 216/42/1
f 217/55/1 218/54/1 219/42/1 220/43/1
f 221/56/1 222/55/1 223/43/1 224/44/1
f 225/57/1 226/56/1 227/44/1 228/45/1
f 229/15/1 230/16/1 231/17/1 232/13/1
f 233/7/1 234/15/1 235/13/1 236/10/1
f 237/4/1 238/3/1 239/26/1 240/23/1
f 241/26/1 242/9/1 243/12/1 244/27/1
f 245/22/1 246/23/1 247/24/1 248/25/1
f 249/58/1 250/59/1 251/47/1 252/46/1
f 253/60/1 254/58/1 255/46/1 256/50/1
f 257/61/1 258/62/1 259/53/1 260/52/1
f 261/63/1 262/61/1 263/52/1 264/54/1
f 265/64/1 266/63/1 267/54/1 268/55/1
f 269/65/1 270/64/1 271/55/1 272/56/1
f 273/66/1 274/65/1 275/56/1 276/57/1
f 277/15/1 278/16/1 279/17/1 280/13/1
f 281/7/1 282/15/1 283/13/1 284/10/1
f 285/3/1 286/8/1 287/9/1 288/26/1
f 289/67/1 290/68/1 291/59/1 292/58/1
f 293/69/1 294/67/1 295/58/1 296/60/1
f 297/70/1 298/71/1 299/62/1 300/61/1
f 301/72/1 302/70/1 303/61/1 304/63/1
f 305/73/1 306/72/1 307/63/1 308/64/1
f 309/74/1 310/73/1 311/64/1 312/65/1
f 313/75/1 314/74/1 315/65/1 316/66/1
f 317/15/1 318/16/1 319/17/1 320/13/1
f 321/7/1 322/15/1 323/13/1 324/10/1
f 325/3/1 326/8/1 327/9/1 328/26/1
f 329/15/1 330/16/1 331/17/1 332/13/1
f 333/7/1 334/15/1 335/13/1 336/10/1
f 337/3/1 338/8/1 339/9/1 340/26/1
f 341/15/1 342/16/1 343/17/1 344/13/1
f 345/7/1 346/15/1 347/13/1 348/10/1
f 349/4/1 350/3/1 351/26/1 352/23/1
f 353/26/1 354/9/1 355/12/1 356/27/1
f 357/26/1 358/9/1 359/12/1 360/27/1
f 361/26/1 362/9/1 363/12/1 364/27/1
f 365/26/1 366/9/1 367/12/1 368/27/1
f 369/22/1 370/23/1 371/24/1 372/25/1
f 373/15/1 374/16/1 375/17/1 376/13/1
f 377/7/1 378/15/1 379/13/1 380/10/1
f 381/3/1 382/8/1 383/9/1 384/26/1
f 385/76/1 386/77/1 387/70/1 388/72/1
f 389/15/1 390/16/1 391/17/1 392/13/1
f 393/7/1 394/15/1 395/13/1 396/10/1
f 397/78/1 398/79/1 399/74/1 400/75/1
f 401/3/1 402/8/1 403/9/1 404/26/1
f 405/15/1 406/16/1 407/17/1 408/13/1
f 409/7/1 410/15/1 411/13/1 412/10/1
f 413/3/1 414/8/1 415/9/1 416/26/1
f 417/77/1 418/80/1 419/71/1 420/70/1
f 421/15/1 422/16/1 423/17/1 424/13/1
f 425/7/1 426/15/1 427/13/1 428/10/1
f 429/4/1 430/3/1 431/26/1 432/23/1
f 433/81/1 434/18/1 435/21/1 436/82/1
f 437/18/1 438/19/1 439/20/1 440/21/1
f 441/26/1 442/9/1 443/12/1 444/27/1
f 445/26/1 446/9/1 447/12/1 448/27/1
f 449/26/1 450/9/1 451/12/1 452/27/1
f 453/26/1 454/9/1 455/12/1 456/27/1
f 457/15/1 458/16/1 459/17/1 460/13/1
f 461/7/1 462/15/1 463/13/1 464/10/1
f 465/15/1 466/16/1 467/17/1 468/13/1
f 469/7/1 470/15/1 471/13/1 472/10/1
f 473/76/1 474/77/1 475/70/1 476/72/1
f 477/10/1 478/13/1 479/14/1 480/11/1
f 481/7/1 482/15/1 483/13/1 484/10/1
f 485/7/1 486/15/1 487/13/1 488/10/1
f 489/79/1 490/83/1 491/73/1 492/74/1
f 493/11/1 494/14/1 495/84/1 496/85/1
f 497/7/1 498/15/1 499/13/1 500/10/1
f 501/86/1 502/87/1 503/88/1 504/89/1
f 505/90/1 506/86/1 507/89/1 508/91/1
f 509/15/1 510/16/1 511/17/1 512/13/1
f 513/7/1 514/15/1 515/13/1 516/10/1
f 517/92/1 518/93/1 519/87/1 520/86/1
f 521/94/1 522/92/1 523/86/1 524/90/1
f 525/15/1 526/16/1 527/17/1 528/13/1
f 529/7/1 530/15/1 531/13/1 532/10/1
f 533/95/1 534/78/1 535/75/1 536/96/1
f 537/97/1 538/95/1 539/96/1 540/98/1
f 541/99/1 542/97/1 543/98/1 544/100/1
f 545/15/1 546/16/1 547/17/1 548/13/1
f 549/7/1 550/15/1 551/13/1 552/10/1
f 553/15/1 554/16/1 555/17/1 556/13/1
f 557/14/1 558/101/1 559/102/1 560/84/1
f 561/8/1 562/7/1 563/10/1 564/9/1
f 565/8/1 566/7/1 567/10/1 568/9/1
f 569/8/1 570/7/1 571/10/1 572/9/1
f 573/8/1 574/7/1 575/10/1 576/9/1
f 577/8/1 578/7/1 579/10/1 580/9/1
f 581/12/1 582/11/1 583/85/1 584/103/1
f 585/11/1 586/14/1 587/84/1 588/85/1
f 589/8/1 590/7/1 591/10/1 592/9/1
f 593/8/1 594/7/1 595/10/1 596/9/1
f 597/8/1 598/7/1 599/10/1 600/9/1
f 601/8/1 602/7/1 603/10/1 604/9/1
f 605/8/1 606/7/1 607/10/1 608/9/1
f 609/8/1 610/7/1 611/10/1 612/9/1
f 613/8/1 614/7/1 615/10/1 616/9/1
f 617/13/1 618/17/1 619/101/1 620/14/1

