# Tiled2Unity generated file. Do not modify by hand.
# Wavefront file for 'RoomTwo_mesh_0002.obj'

# Vertices (Count = 600)
v -22 -8 0
v -23 -8 0
v -23 -7 0
v -22 -7 0
v -21 -8 0
v -22 -8 0
v -22 -7 0
v -21 -7 0
v -20 -8 0
v -21 -8 0
v -21 -7 0
v -20 -7 0
v -19 -8 0
v -20 -8 0
v -20 -7 0
v -19 -7 0
v -18 -8 0
v -19 -8 0
v -19 -7 0
v -18 -7 0
v -17 -8 0
v -18 -8 0
v -18 -7 0
v -17 -7 0
v -16 -8 0
v -17 -8 0
v -17 -7 0
v -16 -7 0
v -15 -8 0
v -16 -8 0
v -16 -7 0
v -15 -7 0
v -14 -8 0
v -15 -8 0
v -15 -7 0
v -14 -7 0
v -13 -8 0
v -14 -8 0
v -14 -7 0
v -13 -7 0
v -12 -8 0
v -13 -8 0
v -13 -7 0
v -12 -7 0
v -11 -8 0
v -12 -8 0
v -12 -7 0
v -11 -7 0
v -10 -8 0
v -11 -8 0
v -11 -7 0
v -10 -7 0
v -9 -8 0
v -10 -8 0
v -10 -7 0
v -9 -7 0
v -8 -8 0
v -9 -8 0
v -9 -7 0
v -8 -7 0
v -22 -9 0
v -23 -9 0
v -23 -8 0
v -22 -8 0
v -21 -9 0
v -22 -9 0
v -22 -8 0
v -21 -8 0
v -20 -9 0
v -21 -9 0
v -21 -8 0
v -20 -8 0
v -19 -9 0
v -20 -9 0
v -20 -8 0
v -19 -8 0
v -18 -9 0
v -19 -9 0
v -19 -8 0
v -18 -8 0
v -17 -9 0
v -18 -9 0
v -18 -8 0
v -17 -8 0
v -16 -9 0
v -17 -9 0
v -17 -8 0
v -16 -8 0
v -15 -9 0
v -16 -9 0
v -16 -8 0
v -15 -8 0
v -14 -9 0
v -15 -9 0
v -15 -8 0
v -14 -8 0
v -13 -9 0
v -14 -9 0
v -14 -8 0
v -13 -8 0
v -12 -9 0
v -13 -9 0
v -13 -8 0
v -12 -8 0
v -11 -9 0
v -12 -9 0
v -12 -8 0
v -11 -8 0
v -10 -9 0
v -11 -9 0
v -11 -8 0
v -10 -8 0
v -9 -9 0
v -10 -9 0
v -10 -8 0
v -9 -8 0
v -8 -9 0
v -9 -9 0
v -9 -8 0
v -8 -8 0
v -22 -10 0
v -23 -10 0
v -23 -9 0
v -22 -9 0
v -21 -10 0
v -22 -10 0
v -22 -9 0
v -21 -9 0
v -20 -10 0
v -21 -10 0
v -21 -9 0
v -20 -9 0
v -19 -10 0
v -20 -10 0
v -20 -9 0
v -19 -9 0
v -18 -10 0
v -19 -10 0
v -19 -9 0
v -18 -9 0
v -17 -10 0
v -18 -10 0
v -18 -9 0
v -17 -9 0
v -16 -10 0
v -17 -10 0
v -17 -9 0
v -16 -9 0
v -15 -10 0
v -16 -10 0
v -16 -9 0
v -15 -9 0
v -14 -10 0
v -15 -10 0
v -15 -9 0
v -14 -9 0
v -13 -10 0
v -14 -10 0
v -14 -9 0
v -13 -9 0
v -12 -10 0
v -13 -10 0
v -13 -9 0
v -12 -9 0
v -11 -10 0
v -12 -10 0
v -12 -9 0
v -11 -9 0
v -10 -10 0
v -11 -10 0
v -11 -9 0
v -10 -9 0
v -9 -10 0
v -10 -10 0
v -10 -9 0
v -9 -9 0
v -8 -10 0
v -9 -10 0
v -9 -9 0
v -8 -9 0
v -22 -11 0
v -23 -11 0
v -23 -10 0
v -22 -10 0
v -21 -11 0
v -22 -11 0
v -22 -10 0
v -21 -10 0
v -20 -11 0
v -21 -11 0
v -21 -10 0
v -20 -10 0
v -19 -11 0
v -20 -11 0
v -20 -10 0
v -19 -10 0
v -18 -11 0
v -19 -11 0
v -19 -10 0
v -18 -10 0
v -17 -11 0
v -18 -11 0
v -18 -10 0
v -17 -10 0
v -16 -11 0
v -17 -11 0
v -17 -10 0
v -16 -10 0
v -15 -11 0
v -16 -11 0
v -16 -10 0
v -15 -10 0
v -14 -11 0
v -15 -11 0
v -15 -10 0
v -14 -10 0
v -13 -11 0
v -14 -11 0
v -14 -10 0
v -13 -10 0
v -12 -11 0
v -13 -11 0
v -13 -10 0
v -12 -10 0
v -11 -11 0
v -12 -11 0
v -12 -10 0
v -11 -10 0
v -10 -11 0
v -11 -11 0
v -11 -10 0
v -10 -10 0
v -9 -11 0
v -10 -11 0
v -10 -10 0
v -9 -10 0
v -8 -11 0
v -9 -11 0
v -9 -10 0
v -8 -10 0
v -22 -12 0
v -23 -12 0
v -23 -11 0
v -22 -11 0
v -21 -12 0
v -22 -12 0
v -22 -11 0
v -21 -11 0
v -20 -12 0
v -21 -12 0
v -21 -11 0
v -20 -11 0
v -19 -12 0
v -20 -12 0
v -20 -11 0
v -19 -11 0
v -18 -12 0
v -19 -12 0
v -19 -11 0
v -18 -11 0
v -17 -12 0
v -18 -12 0
v -18 -11 0
v -17 -11 0
v -16 -12 0
v -17 -12 0
v -17 -11 0
v -16 -11 0
v -15 -12 0
v -16 -12 0
v -16 -11 0
v -15 -11 0
v -14 -12 0
v -15 -12 0
v -15 -11 0
v -14 -11 0
v -13 -12 0
v -14 -12 0
v -14 -11 0
v -13 -11 0
v -12 -12 0
v -13 -12 0
v -13 -11 0
v -12 -11 0
v -11 -12 0
v -12 -12 0
v -12 -11 0
v -11 -11 0
v -10 -12 0
v -11 -12 0
v -11 -11 0
v -10 -11 0
v -9 -12 0
v -10 -12 0
v -10 -11 0
v -9 -11 0
v -8 -12 0
v -9 -12 0
v -9 -11 0
v -8 -11 0
v -22 -13 0
v -23 -13 0
v -23 -12 0
v -22 -12 0
v -21 -13 0
v -22 -13 0
v -22 -12 0
v -21 -12 0
v -20 -13 0
v -21 -13 0
v -21 -12 0
v -20 -12 0
v -19 -13 0
v -20 -13 0
v -20 -12 0
v -19 -12 0
v -18 -13 0
v -19 -13 0
v -19 -12 0
v -18 -12 0
v -17 -13 0
v -18 -13 0
v -18 -12 0
v -17 -12 0
v -16 -13 0
v -17 -13 0
v -17 -12 0
v -16 -12 0
v -15 -13 0
v -16 -13 0
v -16 -12 0
v -15 -12 0
v -14 -13 0
v -15 -13 0
v -15 -12 0
v -14 -12 0
v -13 -13 0
v -14 -13 0
v -14 -12 0
v -13 -12 0
v -12 -13 0
v -13 -13 0
v -13 -12 0
v -12 -12 0
v -11 -13 0
v -12 -13 0
v -12 -12 0
v -11 -12 0
v -10 -13 0
v -11 -13 0
v -11 -12 0
v -10 -12 0
v -9 -13 0
v -10 -13 0
v -10 -12 0
v -9 -12 0
v -8 -13 0
v -9 -13 0
v -9 -12 0
v -8 -12 0
v -22 -14 0
v -23 -14 0
v -23 -13 0
v -22 -13 0
v -21 -14 0
v -22 -14 0
v -22 -13 0
v -21 -13 0
v -20 -14 0
v -21 -14 0
v -21 -13 0
v -20 -13 0
v -19 -14 0
v -20 -14 0
v -20 -13 0
v -19 -13 0
v -18 -14 0
v -19 -14 0
v -19 -13 0
v -18 -13 0
v -17 -14 0
v -18 -14 0
v -18 -13 0
v -17 -13 0
v -16 -14 0
v -17 -14 0
v -17 -13 0
v -16 -13 0
v -15 -14 0
v -16 -14 0
v -16 -13 0
v -15 -13 0
v -14 -14 0
v -15 -14 0
v -15 -13 0
v -14 -13 0
v -13 -14 0
v -14 -14 0
v -14 -13 0
v -13 -13 0
v -12 -14 0
v -13 -14 0
v -13 -13 0
v -12 -13 0
v -11 -14 0
v -12 -14 0
v -12 -13 0
v -11 -13 0
v -10 -14 0
v -11 -14 0
v -11 -13 0
v -10 -13 0
v -9 -14 0
v -10 -14 0
v -10 -13 0
v -9 -13 0
v -8 -14 0
v -9 -14 0
v -9 -13 0
v -8 -13 0
v -22 -15 0
v -23 -15 0
v -23 -14 0
v -22 -14 0
v -21 -15 0
v -22 -15 0
v -22 -14 0
v -21 -14 0
v -20 -15 0
v -21 -15 0
v -21 -14 0
v -20 -14 0
v -19 -15 0
v -20 -15 0
v -20 -14 0
v -19 -14 0
v -18 -15 0
v -19 -15 0
v -19 -14 0
v -18 -14 0
v -17 -15 0
v -18 -15 0
v -18 -14 0
v -17 -14 0
v -16 -15 0
v -17 -15 0
v -17 -14 0
v -16 -14 0
v -15 -15 0
v -16 -15 0
v -16 -14 0
v -15 -14 0
v -14 -15 0
v -15 -15 0
v -15 -14 0
v -14 -14 0
v -13 -15 0
v -14 -15 0
v -14 -14 0
v -13 -14 0
v -12 -15 0
v -13 -15 0
v -13 -14 0
v -12 -14 0
v -11 -15 0
v -12 -15 0
v -12 -14 0
v -11 -14 0
v -10 -15 0
v -11 -15 0
v -11 -14 0
v -10 -14 0
v -9 -15 0
v -10 -15 0
v -10 -14 0
v -9 -14 0
v -8 -15 0
v -9 -15 0
v -9 -14 0
v -8 -14 0
v -22 -16 0
v -23 -16 0
v -23 -15 0
v -22 -15 0
v -21 -16 0
v -22 -16 0
v -22 -15 0
v -21 -15 0
v -20 -16 0
v -21 -16 0
v -21 -15 0
v -20 -15 0
v -19 -16 0
v -20 -16 0
v -20 -15 0
v -19 -15 0
v -18 -16 0
v -19 -16 0
v -19 -15 0
v -18 -15 0
v -17 -16 0
v -18 -16 0
v -18 -15 0
v -17 -15 0
v -16 -16 0
v -17 -16 0
v -17 -15 0
v -16 -15 0
v -15 -16 0
v -16 -16 0
v -16 -15 0
v -15 -15 0
v -14 -16 0
v -15 -16 0
v -15 -15 0
v -14 -15 0
v -13 -16 0
v -14 -16 0
v -14 -15 0
v -13 -15 0
v -12 -16 0
v -13 -16 0
v -13 -15 0
v -12 -15 0
v -11 -16 0
v -12 -16 0
v -12 -15 0
v -11 -15 0
v -10 -16 0
v -11 -16 0
v -11 -15 0
v -10 -15 0
v -9 -16 0
v -10 -16 0
v -10 -15 0
v -9 -15 0
v -8 -16 0
v -9 -16 0
v -9 -15 0
v -8 -15 0
v -22 -17 0
v -23 -17 0
v -23 -16 0
v -22 -16 0
v -21 -17 0
v -22 -17 0
v -22 -16 0
v -21 -16 0
v -20 -17 0
v -21 -17 0
v -21 -16 0
v -20 -16 0
v -19 -17 0
v -20 -17 0
v -20 -16 0
v -19 -16 0
v -18 -17 0
v -19 -17 0
v -19 -16 0
v -18 -16 0
v -17 -17 0
v -18 -17 0
v -18 -16 0
v -17 -16 0
v -16 -17 0
v -17 -17 0
v -17 -16 0
v -16 -16 0
v -15 -17 0
v -16 -17 0
v -16 -16 0
v -15 -16 0
v -14 -17 0
v -15 -17 0
v -15 -16 0
v -14 -16 0
v -13 -17 0
v -14 -17 0
v -14 -16 0
v -13 -16 0
v -12 -17 0
v -13 -17 0
v -13 -16 0
v -12 -16 0
v -11 -17 0
v -12 -17 0
v -12 -16 0
v -11 -16 0
v -10 -17 0
v -11 -17 0
v -11 -16 0
v -10 -16 0
v -9 -17 0
v -10 -17 0
v -10 -16 0
v -9 -16 0
v -8 -17 0
v -9 -17 0
v -9 -16 0
v -8 -16 0

# Texture cooridinates (Count = 16)
vt 0.1 0.8055556
vt 0.125 0.8055556
vt 0.125 0.8333333
vt 0.1 0.8333333
vt 0.075 0.8055556
vt 0.075 0.8333333
vt 0.05 0.8055556
vt 0.05 0.8333333
vt 0.1 0.7777778
vt 0.125 0.7777778
vt 0.075 0.7777778
vt 0.05 0.7777778
vt 0.1 0.75
vt 0.125 0.75
vt 0.075 0.75
vt 0.05 0.75

# Normal
vn 0 0 -1

# Mesh description
g RoomTwo_mesh_0002

# Faces
f 1/1/1 2/2/1 3/3/1 4/4/1
f 5/5/1 6/1/1 7/4/1 8/6/1
f 9/5/1 10/1/1 11/4/1 12/6/1
f 13/5/1 14/1/1 15/4/1 16/6/1
f 17/5/1 18/1/1 19/4/1 20/6/1
f 21/5/1 22/1/1 23/4/1 24/6/1
f 25/5/1 26/1/1 27/4/1 28/6/1
f 29/5/1 30/1/1 31/4/1 32/6/1
f 33/5/1 34/1/1 35/4/1 36/6/1
f 37/5/1 38/1/1 39/4/1 40/6/1
f 41/5/1 42/1/1 43/4/1 44/6/1
f 45/5/1 46/1/1 47/4/1 48/6/1
f 49/5/1 50/1/1 51/4/1 52/6/1
f 53/5/1 54/1/1 55/4/1 56/6/1
f 57/7/1 58/5/1 59/6/1 60/8/1
f 61/9/1 62/10/1 63/2/1 64/1/1
f 65/11/1 66/9/1 67/1/1 68/5/1
f 69/11/1 70/9/1 71/1/1 72/5/1
f 73/11/1 74/9/1 75/1/1 76/5/1
f 77/11/1 78/9/1 79/1/1 80/5/1
f 81/11/1 82/9/1 83/1/1 84/5/1
f 85/11/1 86/9/1 87/1/1 88/5/1
f 89/11/1 90/9/1 91/1/1 92/5/1
f 93/11/1 94/9/1 95/1/1 96/5/1
f 97/11/1 98/9/1 99/1/1 100/5/1
f 101/11/1 102/9/1 103/1/1 104/5/1
f 105/11/1 106/9/1 107/1/1 108/5/1
f 109/11/1 110/9/1 111/1/1 112/5/1
f 113/11/1 114/9/1 115/1/1 116/5/1
f 117/12/1 118/11/1 119/5/1 120/7/1
f 121/9/1 122/10/1 123/2/1 124/1/1
f 125/11/1 126/9/1 127/1/1 128/5/1
f 129/11/1 130/9/1 131/1/1 132/5/1
f 133/11/1 134/9/1 135/1/1 136/5/1
f 137/11/1 138/9/1 139/1/1 140/5/1
f 141/11/1 142/9/1 143/1/1 144/5/1
f 145/11/1 146/9/1 147/1/1 148/5/1
f 149/11/1 150/9/1 151/1/1 152/5/1
f 153/11/1 154/9/1 155/1/1 156/5/1
f 157/11/1 158/9/1 159/1/1 160/5/1
f 161/11/1 162/9/1 163/1/1 164/5/1
f 165/11/1 166/9/1 167/1/1 168/5/1
f 169/11/1 170/9/1 171/1/1 172/5/1
f 173/11/1 174/9/1 175/1/1 176/5/1
f 177/12/1 178/11/1 179/5/1 180/7/1
f 181/9/1 182/10/1 183/2/1 184/1/1
f 185/11/1 186/9/1 187/1/1 188/5/1
f 189/11/1 190/9/1 191/1/1 192/5/1
f 193/11/1 194/9/1 195/1/1 196/5/1
f 197/11/1 198/9/1 199/1/1 200/5/1
f 201/11/1 202/9/1 203/1/1 204/5/1
f 205/11/1 206/9/1 207/1/1 208/5/1
f 209/11/1 210/9/1 211/1/1 212/5/1
f 213/11/1 214/9/1 215/1/1 216/5/1
f 217/11/1 218/9/1 219/1/1 220/5/1
f 221/11/1 222/9/1 223/1/1 224/5/1
f 225/11/1 226/9/1 227/1/1 228/5/1
f 229/11/1 230/9/1 231/1/1 232/5/1
f 233/11/1 234/9/1 235/1/1 236/5/1
f 237/12/1 238/11/1 239/5/1 240/7/1
f 241/9/1 242/10/1 243/2/1 244/1/1
f 245/11/1 246/9/1 247/1/1 248/5/1
f 249/11/1 250/9/1 251/1/1 252/5/1
f 253/11/1 254/9/1 255/1/1 256/5/1
f 257/11/1 258/9/1 259/1/1 260/5/1
f 261/11/1 262/9/1 263/1/1 264/5/1
f 265/11/1 266/9/1 267/1/1 268/5/1
f 269/11/1 270/9/1 271/1/1 272/5/1
f 273/11/1 274/9/1 275/1/1 276/5/1
f 277/11/1 278/9/1 279/1/1 280/5/1
f 281/11/1 282/9/1 283/1/1 284/5/1
f 285/11/1 286/9/1 287/1/1 288/5/1
f 289/11/1 290/9/1 291/1/1 292/5/1
f 293/11/1 294/9/1 295/1/1 296/5/1
f 297/12/1 298/11/1 299/5/1 300/7/1
f 301/9/1 302/10/1 303/2/1 304/1/1
f 305/11/1 306/9/1 307/1/1 308/5/1
f 309/11/1 310/9/1 311/1/1 312/5/1
f 313/11/1 314/9/1 315/1/1 316/5/1
f 317/11/1 318/9/1 319/1/1 320/5/1
f 321/11/1 322/9/1 323/1/1 324/5/1
f 325/11/1 326/9/1 327/1/1 328/5/1
f 329/11/1 330/9/1 331/1/1 332/5/1
f 333/11/1 334/9/1 335/1/1 336/5/1
f 337/11/1 338/9/1 339/1/1 340/5/1
f 341/11/1 342/9/1 343/1/1 344/5/1
f 345/11/1 346/9/1 347/1/1 348/5/1
f 349/11/1 350/9/1 351/1/1 352/5/1
f 353/11/1 354/9/1 355/1/1 356/5/1
f 357/12/1 358/11/1 359/5/1 360/7/1
f 361/9/1 362/10/1 363/2/1 364/1/1
f 365/11/1 366/9/1 367/1/1 368/5/1
f 369/11/1 370/9/1 371/1/1 372/5/1
f 373/11/1 374/9/1 375/1/1 376/5/1
f 377/11/1 378/9/1 379/1/1 380/5/1
f 381/11/1 382/9/1 383/1/1 384/5/1
f 385/11/1 386/9/1 387/1/1 388/5/1
f 389/11/1 390/9/1 391/1/1 392/5/1
f 393/11/1 394/9/1 395/1/1 396/5/1
f 397/11/1 398/9/1 399/1/1 400/5/1
f 401/11/1 402/9/1 403/1/1 404/5/1
f 405/11/1 406/9/1 407/1/1 408/5/1
f 409/11/1 410/9/1 411/1/1 412/5/1
f 413/11/1 414/9/1 415/1/1 416/5/1
f 417/12/1 418/11/1 419/5/1 420/7/1
f 421/9/1 422/10/1 423/2/1 424/1/1
f 425/11/1 426/9/1 427/1/1 428/5/1
f 429/11/1 430/9/1 431/1/1 432/5/1
f 433/11/1 434/9/1 435/1/1 436/5/1
f 437/11/1 438/9/1 439/1/1 440/5/1
f 441/11/1 442/9/1 443/1/1 444/5/1
f 445/11/1 446/9/1 447/1/1 448/5/1
f 449/11/1 450/9/1 451/1/1 452/5/1
f 453/11/1 454/9/1 455/1/1 456/5/1
f 457/11/1 458/9/1 459/1/1 460/5/1
f 461/11/1 462/9/1 463/1/1 464/5/1
f 465/11/1 466/9/1 467/1/1 468/5/1
f 469/11/1 470/9/1 471/1/1 472/5/1
f 473/11/1 474/9/1 475/1/1 476/5/1
f 477/12/1 478/11/1 479/5/1 480/7/1
f 481/9/1 482/10/1 483/2/1 484/1/1
f 485/11/1 486/9/1 487/1/1 488/5/1
f 489/11/1 490/9/1 491/1/1 492/5/1
f 493/11/1 494/9/1 495/1/1 496/5/1
f 497/11/1 498/9/1 499/1/1 500/5/1
f 501/11/1 502/9/1 503/1/1 504/5/1
f 505/11/1 506/9/1 507/1/1 508/5/1
f 509/11/1 510/9/1 511/1/1 512/5/1
f 513/11/1 514/9/1 515/1/1 516/5/1
f 517/11/1 518/9/1 519/1/1 520/5/1
f 521/11/1 522/9/1 523/1/1 524/5/1
f 525/11/1 526/9/1 527/1/1 528/5/1
f 529/11/1 530/9/1 531/1/1 532/5/1
f 533/11/1 534/9/1 535/1/1 536/5/1
f 537/12/1 538/11/1 539/5/1 540/7/1
f 541/13/1 542/14/1 543/10/1 544/9/1
f 545/15/1 546/13/1 547/9/1 548/11/1
f 549/15/1 550/13/1 551/9/1 552/11/1
f 553/15/1 554/13/1 555/9/1 556/11/1
f 557/15/1 558/13/1 559/9/1 560/11/1
f 561/15/1 562/13/1 563/9/1 564/11/1
f 565/15/1 566/13/1 567/9/1 568/11/1
f 569/15/1 570/13/1 571/9/1 572/11/1
f 573/15/1 574/13/1 575/9/1 576/11/1
f 577/15/1 578/13/1 579/9/1 580/11/1
f 581/15/1 582/13/1 583/9/1 584/11/1
f 585/15/1 586/13/1 587/9/1 588/11/1
f 589/15/1 590/13/1 591/9/1 592/11/1
f 593/15/1 594/13/1 595/9/1 596/11/1
f 597/16/1 598/15/1 599/11/1 600/12/1

